<?xml version="1.0" encoding="UTF-8" standalone="no"?>
<!-- Created with Inkscape (http://www.inkscape.org/) -->

<svg
   xmlns:dc="http://purl.org/dc/elements/1.1/"
   xmlns:cc="http://creativecommons.org/ns#"
   xmlns:rdf="http://www.w3.org/1999/02/22-rdf-syntax-ns#"
   xmlns:svg="http://www.w3.org/2000/svg"
   xmlns="http://www.w3.org/2000/svg"
   version="1.0"
   width="42"
   height="42"
   id="svg2">
  <defs
     id="defs4" />
  <metadata
     id="metadata7">
    <rdf:RDF>
      <cc:Work
         rdf:about="">
        <dc:format>image/svg+xml</dc:format>
        <dc:type
           rdf:resource="http://purl.org/dc/dcmitype/StillImage" />
        <dc:title></dc:title>
      </cc:Work>
    </rdf:RDF>
  </metadata>
  <g
     id="layer1">
    <rect
       width="30.046175"
       height="30.046175"
       ry="4.5299301"
       x="5.9769125"
       y="5.9769125"
       id="rect3133"
       style="fill:#4c4d4f;fill-opacity:1;fill-rule:evenodd;stroke:#ffffff;stroke-width:3.5;stroke-linecap:butt;stroke-linejoin:round;stroke-miterlimit:4;stroke-opacity:1;stroke-dasharray:none" />
    <text
       x="29.846809"
       y="21.74468"
       id="text3201"
       xml:space="preserve"
       style="font-size:40px;font-style:normal;font-weight:normal;line-height:125%;letter-spacing:0px;word-spacing:0px;fill:#000000;fill-opacity:1;stroke:none;font-family:Sans"><tspan
         x="29.846809"
         y="21.74468"
         id="tspan3203"></tspan></text>
    <g
       transform="translate(-0.03915192,-0.25872079)"
       id="g4019">
      <path
         d="m 14.953191,16.114893 a 1.6085106,1.5191489 0 1 1 -3.217021,0 1.6085106,1.5191489 0 1 1 3.217021,0 z"
         transform="matrix(1.2433863,0,0,1.3165266,-3.6462047,-7.9493075)"
         id="path3224"
         style="fill:#ffffff;fill-opacity:1;stroke:none" />
      <path
         d="m 14.953191,16.114893 a 1.6085106,1.5191489 0 1 1 -3.217021,0 1.6085106,1.5191489 0 1 1 3.217021,0 z"
         transform="matrix(1.2433863,0,0,1.3165266,4.4465587,0.04303535)"
         id="path3224-7"
         style="fill:#ffffff;fill-opacity:1;stroke:none" />
      <path
         d="m 14.953191,16.114893 a 1.6085106,1.5191489 0 1 1 -3.217021,0 1.6085106,1.5191489 0 1 1 3.217021,0 z"
         transform="matrix(1.2433863,0,0,1.3165266,12.539322,8.0353786)"
         id="path3224-5"
         style="fill:#ffffff;fill-opacity:1;stroke:none" />
    </g>
  </g>
</svg>
