<?xml version="1.0" encoding="utf-8"?>
<!DOCTYPE svg PUBLIC "-//W3C//DTD SVG 1.1//EN" "http://www.w3.org/Graphics/SVG/1.1/DTD/svg11.dtd" [
<!ENTITY stroke_color "#000000">
<!ENTITY fill_color "#AAAAAA">
]>
<svg
   xmlns:dc="http://purl.org/dc/elements/1.1/"
   xmlns:cc="http://web.resource.org/cc/"
   xmlns:rdf="http://www.w3.org/1999/02/22-rdf-syntax-ns#"
   xmlns:svg="http://www.w3.org/2000/svg"
   xmlns="http://www.w3.org/2000/svg"
   version="1.1"
   id="Icon"
   width="46.119"
   height="46.121"
   viewBox="0 0 46.119 46.121"
   overflow="visible"
   enable-background="new 0 0 46.119 46.121"
   xml:space="preserve">
<path
   style="fill:&fill_color;;fill-rule:evenodd;stroke:&stroke_color;;stroke-width:1px;stroke-linecap:butt;stroke-linejoin:miter;stroke-opacity:1"
   d="M -14.278246,-46.460958 C -14.391566,-46.460958 -14.051608,-46.460958 -14.278246,-46.460958 z "
   id="path3281" /><rect
   style="fill:&fill_color;;fill-opacity:1;stroke:&stroke_color;;stroke-width:3.50000012;stroke-linecap:round;stroke-linejoin:round;stroke-miterlimit:4;stroke-dasharray:none;stroke-opacity:0.94117647"
   id="rect2208"
   width="25.102291"
   height="40.128311"
   x="10.694989"
   y="2.8990984" /><path
   style="fill:&fill_color;;fill-opacity:1;stroke:&stroke_color;;stroke-width:5;stroke-linecap:round;stroke-linejoin:round;stroke-miterlimit:4;stroke-dasharray:none;stroke-opacity:0.94117647"
   id="path2210"
   d="M 18.73833 9.2630596 A 1.1490486 0.9722718 0 1 1  16.440233,9.2630596 A 1.1490486 0.9722718 0 1 1  18.73833 9.2630596 z"
   transform="matrix(0.7722429,0,0,0.9126507,9.6629373,24.276228)" /><path
   style="fill:&fill_color;;fill-rule:evenodd;stroke:&stroke_color;;stroke-width:1.01488268px;stroke-linecap:butt;stroke-linejoin:miter;stroke-opacity:1"
   d="M 11.851479,22.96054 L 34.64079,22.965968"
   id="path3188" /><path
   style="fill:&fill_color;;fill-opacity:1;stroke:&stroke_color;;stroke-width:5;stroke-linecap:round;stroke-linejoin:round;stroke-miterlimit:4;stroke-dasharray:none;stroke-opacity:0.94117647"
   id="path3192"
   d="M 18.73833 9.2630596 A 1.1490486 0.9722718 0 1 1  16.440233,9.2630596 A 1.1490486 0.9722718 0 1 1  18.73833 9.2630596 z"
   transform="matrix(0.7722429,0,0,0.9126507,3.9176947,0.8975099)" /><path
   style="fill:&fill_color;;fill-opacity:1;stroke:&stroke_color;;stroke-width:5;stroke-linecap:round;stroke-linejoin:round;stroke-miterlimit:4;stroke-dasharray:none;stroke-opacity:0.94117647"
   id="path3194"
   d="M 18.73833 9.2630596 A 1.1490486 0.9722718 0 1 1  16.440233,9.2630596 A 1.1490486 0.9722718 0 1 1  18.73833 9.2630596 z"
   transform="matrix(0.7722429,0,0,0.9126507,15.584956,9.4711795)" /></svg>
